<svg id="Capa_1" data-name="Capa 1" xmlns="http://www.w3.org/2000/svg" width="2011.16" height="795.2" viewBox="0 0 2011.16 795.2">
  <defs>
    <style>
      .cls-1 {
        fill: #ffce00;
      }

      .cls-2 {
        fill: #0058a0;
      }
    </style>
  </defs>
  <g>
    <rect class="cls-1" width="2011.16" height="795.2"/>
    <g>
      <path class="cls-2" d="M642.64-732.44c8.93-3.21,8.93-3.21,8.57-12.86a11.6,11.6,0,0,1,.54-4.82c24.92,21.44,39.48,48.77,45.91,81.64l6.79-7.86c42.78-49.58,94-88.34,151.84-118.44,36.88-19.2,75.29-34.74,115.93-44.3,30.64-7.06,61.63-9.56,93-5.72,1.61.18,3.21.63,4.91,1L1050.64-824l12.51,12.06c-2.33.63-3.76,1.16-5.19,1.43-99.23,16.88-183.9,62.88-257.23,130.58-42.34,39-75.12,85.48-103.07,135.5-1.07,2-2.5,3.84-3.4,5.8-5.44,11.44-22.33,10-27.86-.53-4.2-8-5.09-16.08-5.36-24.57-.72-21.7-.54-43.49-2.41-65.11s-5.81-43.85-9.11-65.74C647.55-707.16,645-719.66,642.64-732.44Z" transform="translate(760.28 1120.92)"/>
      <g>
        <path class="cls-2" d="M-223.4-917.69q-6.65,12.2-13,23.85t-13.28,24.11c-4.67,8.45-9.5,17.58-14.36,27.15s-10.48,20.42-16.61,32.09L-297-778.17c-7.48,14.48-14.47,28.71-20.76,42.29s-11.87,26-16.64,37.2c-4.65,10.85-8.62,20.33-11.78,28.18-.53,1.29-1,2.51-1.46,3.66L-379.2-919.52h-90.47L-584.28-554.61h85.67l20.6-81.67c5.09-20.77,10-41.48,14.57-61.56s8.52-38.27,11.77-54.44c3.36-16.71,6-29.88,8.18-40.29.3-1.49.59-2.9.87-4.24L-414-557.26h74.63l1-1.77c8.91-15.65,17.78-31.64,26.35-47.52s17.29-32.63,25.84-49.66l16.34-32.32c7.56-14.64,14.71-29,21.26-42.79,6.62-13.93,12.57-26.8,17.66-38.26,3.87-8.7,7.2-16.34,9.94-22.81L-246.7-554.61h84.27l29.7-364.91H-222.4Z" transform="translate(760.28 1120.92)"/>
        <path class="cls-2" d="M148.12-814.16l-2.6-1.26a168.85,168.85,0,0,0-48.15-14.66,333.15,333.15,0,0,0-49.88-4h-.16A176.26,176.26,0,0,0-8.8-825a171.93,171.93,0,0,0-49.66,26.29,174.46,174.46,0,0,0-39.38,42.41c-11.16,16.78-19.64,36.3-25.23,58.06a219.79,219.79,0,0,0-6.63,51.06c-.13,16.92,2.19,32.29,6.89,45.67,4.79,13.7,12.41,25,22.64,33.66,10.43,8.81,23.81,13.28,39.79,13.28a208.93,208.93,0,0,0,24.57-1.48,56.59,56.59,0,0,0,25-9.56,193.9,193.9,0,0,0,21.3-16.48q4.35-3.89,8.21-7.68l-7.88,35.2h85v-3.49c0-.27.09-27.19,2.92-45.85C107-658.07,147-809.85,147.38-811.38Zm-88.37,47L34.88-665.56c-24.56,40.88-49.78,48.2-64,42-15.05-6.56-25.13-30.65-13.73-69.68,11-37.54,34.59-65.91,63.22-75.89a57.43,57.43,0,0,1,18.86-3.38A39.19,39.19,0,0,1,59.75-767.14Z" transform="translate(760.28 1120.92)"/>
        <path class="cls-2" d="M353.71-816.92l-1.33-1.32c-14.6-14.43-73-25.15-120.75-9.83-27,8.68-61,29-69.1,76.39-5.11,29.83,10.6,54.19,48.05,74.47,2.59,1.41,5.5,2.84,8.58,4.35C236-664.56,257-654.25,252.5-635.7c-2.35,9.62-8.89,16.78-18.93,20.71-20.3,7.94-49.92,1.59-77.29-16.56l-4.21-2.8-1.14,4.93c-.86,3.79-12.89,57.94-14,64.51l-.45,2.77,2.61,1c.57.23,40.19,14.88,84,14.87,20.63,0,42.2-3.24,61-12.78,24.14-12.2,40.21-33,47.77-61.84,3.76-14.34,8.59-51.34-27.63-85.14-14.51-13.53-29-21-39.64-26.39-13.59-7-19.56-10.35-18.62-17.87s5.06-13,12.27-16.37C276-775,308.62-769.13,334.19-753l4,2.52,1.25-4.55c2.08-7.56,11.24-46.52,13.92-60Z" transform="translate(760.28 1120.92)"/>
        <path class="cls-2" d="M561.86-815.13c-14.59-14.43-73-25.15-120.75-9.83-27,8.68-60.95,29-69.09,76.4-5.12,29.83,10.59,54.18,48,74.46,2.6,1.41,5.51,2.84,8.59,4.35,16.87,8.3,37.87,18.62,33.34,37.17-2.35,9.62-8.9,16.78-18.94,20.7-20.3,7.94-49.91,1.6-77.29-16.56l-4.21-2.8-1.13,4.93c-.87,3.79-12.89,57.93-14,64.51L346-559l2.61,1c.57.23,40.2,14.88,84,14.88,20.64,0,42.2-3.25,61.06-12.78,24.13-12.21,40.21-33,47.76-61.85,3.76-14.34,8.59-51.34-27.63-85.14-14.5-13.53-29-21-39.63-26.39-13.6-7-19.57-10.35-18.62-17.86s5.06-13,12.26-16.38c17.67-8.36,50.26-2.51,75.83,13.59l4,2.52,1.25-4.55c2.08-7.56,11.24-46.52,13.92-60l.37-1.85Z" transform="translate(760.28 1120.92)"/>
      </g>
    </g>
  </g>
</svg>
